  <svg
      version="1.0"
      xmlns="http://www.w3.org/2000/svg"
      xmlns:xlink="http://www.w3.org/1999/xlink"
      viewBox="0 0 340.000000 250.000000"
      preserveAspectRatio="xMidYMid meet"
      color-interpolation-filters="sRGB"
    >
      <g
        data-v-0dd9719b=""
        fill="#1ca3e4"
        class="icon-text-wrapper icon-svg-group iconsvg"
        transform="translate(51.915000915527344,100.93859481811523)"
      >
        <g class="iconsvg-imagesvg" transform="translate(0,0)">
          <g>
            <rect
              fill="#1ca3e4"
              fill-opacity="0"
              stroke-width="2"
              x="0"
              y="0"
              width="60"
              height="48.12280940961333"
              class="image-rect"
            ></rect>
            <svg
              filter="url(#colors8079820047)"
              x="0"
              y="0"
              width="60"
              height="48.12280940961333"
              filtersec="colorsf9272806240"
              class="image-svg-svg primary"
              style="overflow: visible"
            >
              <svg
                xmlns="http://www.w3.org/2000/svg"
                viewBox="-0.000828872958663851 -0.00008586401236243546 42.83592987060547 34.35652542114258"
              >
                <g>
                  <g fill="#000000">
                    <path
                      d="M5.78 13.44L13.39 25h.89c.28 0 .55 0 .83-.07h.25a8.85 8.85 0 0 0 .87-.16h.2c.36-.08.7-.18 1.05-.29A11.9 11.9 0 0 0 18.6 24l.27-.13a9.78 9.78 0 0 0 1.06-.57H20l.65-.47a2.64 2.64 0 0 1-1.48-1.11L13.49 13l-1.41-2.15a1 1 0 0 1-.09-.15l-.08-.15a12.76 12.76 0 0 1-1.31-5.68 13.4 13.4 0 0 1 .15-2v-.24c.06-.34.14-.69.23-1a2.45 2.45 0 0 1 .08-.29A11.47 11.47 0 0 1 11.49 0H3.58A3.53 3.53 0 0 0 .44 1.87a3.56 3.56 0 0 0 .15 3.68z"
                    ></path>
                    <path
                      d="M13 0h-.23a11.15 11.15 0 0 0-.88 3 10.87 10.87 0 0 0-.16 1.86 11.74 11.74 0 0 0 .38 3 2.71 2.71 0 0 1 2.2-1.13h2.38V4.1a4 4 0 0 0-.85-2.49A4.09 4.09 0 0 0 13 0zM41.59.86a3.42 3.42 0 0 0-1.23-.69A3.55 3.55 0 0 0 39.27 0h-9a4.11 4.11 0 0 0-4.1 4.1v2.57h2.38a2.7 2.7 0 0 1 2.27 4.19l-5.7 8.64v.05A12.75 12.75 0 0 1 24 21.23l-.3.45a2.62 2.62 0 0 1-.8.79 12.86 12.86 0 0 1-5 3.1 12.72 12.72 0 0 1-3.68.67l4.26 6.49a3.58 3.58 0 0 0 6 0L42.26 5.54A3.59 3.59 0 0 0 41.73 1z"
                    ></path>
                  </g>
                </g>
              </svg>
            </svg>
            <defs>
              <filter id="colors8079820047">
                <feColorMatrix
                  type="matrix"
                  values="0 0 0 0 0.109375  0 0 0 0 0.63671875  0 0 0 0 0.890625  0 0 0 1 0"
                  class="icon-fecolormatrix"
                ></feColorMatrix>
              </filter>
              <filter id="colorsf9272806240">
                <feColorMatrix
                  type="matrix"
                  values="0 0 0 0 0.99609375  0 0 0 0 0.99609375  0 0 0 0 0.99609375  0 0 0 1 0"
                  class="icon-fecolormatrix"
                ></feColorMatrix>
              </filter>
              <filter id="colorsb5125834497">
                <feColorMatrix
                  type="matrix"
                  values="0 0 0 0 0  0 0 0 0 0  0 0 0 0 0  0 0 0 1 0"
                  class="icon-fecolormatrix"
                ></feColorMatrix>
              </filter>
            </defs>
          </g>
        </g>
        <g transform="translate(67,1.618906021118164)">
          <g data-gra="path-name" fill-rule="" class="tp-name iconsvg-namesvg">
            <g transform="scale(1)">
              <g>
                <path
                  d="M13.7 6.14L13.7 6.14Q13.31 6.14 12.89 6.11 12.47 6.09 12.08 6.04L12.08 6.04Q10.75 5.89 9.26 5.38 7.76 4.86 6.41 3.78 5.06 2.7 3.93 0.96 2.8-0.79 2.16-3.39L2.16-3.39 5.89-4.32Q7.36 1.57 12.52 2.21L12.52 2.21Q13.85 2.36 15.25 2.16 16.64 1.96 17.85 1.37 19.05 0.79 19.89-0.17 20.72-1.13 20.97-2.41L20.97-2.41Q21.11-3.34 21.01-4.47 20.92-5.6 20.08-6.73 19.25-7.86 17.45-8.94 15.66-10.02 12.42-10.85L12.42-10.85Q9.82-11.54 7.83-12.96 5.84-14.39 4.76-16.35L4.76-16.35Q3-19.54 4.12-23.08L4.12-23.08Q5.06-26.02 7.46-27.77 9.87-29.51 13.16-29.66L13.16-29.66Q14.78-29.71 16.55-29.26 18.31-28.82 19.96-27.86 21.6-26.91 22.98-25.36 24.35-23.81 25.24-21.65L25.24-21.65 21.65-20.23Q21.01-21.85 20.01-22.93 19-24.01 17.87-24.65 16.74-25.29 15.54-25.56 14.34-25.83 13.31-25.78L13.31-25.78Q11.24-25.68 9.8-24.65 8.35-23.62 7.81-21.9L7.81-21.9Q7.22-19.89 8.15-18.22L8.15-18.22Q8.84-16.99 10.21-16.03 11.59-15.07 13.4-14.58L13.4-14.58Q17.43-13.5 19.81-11.98 22.19-10.46 23.4-8.72 24.6-6.97 24.82-5.16 25.04-3.34 24.75-1.72L24.75-1.72Q24.4 0.2 23.35 1.67 22.29 3.14 20.77 4.12 19.25 5.11 17.41 5.62 15.56 6.14 13.7 6.14ZM38.53 4.32L38.53 4.32Q35.68 4.32 33.22 2.8L33.22 2.8 33.22 15.22 29.34 15.22 29.34-13.75 27.04-13.75 27.04-17.63 33.22-17.63 33.22-16.2Q35.68-17.73 38.53-17.73L38.53-17.73Q40.69-17.73 42.6-16.87 44.52-16.01 45.94-14.51 47.36-13.01 48.2-11 49.03-8.99 49.03-6.73L49.03-6.73Q49.03-4.42 48.2-2.43 47.36-0.44 45.94 1.08 44.52 2.6 42.6 3.46 40.69 4.32 38.53 4.32ZM38.53 0.44L38.53 0.44Q39.9 0.44 41.1-0.12 42.31-0.69 43.21-1.64 44.12-2.6 44.64-3.93 45.15-5.25 45.15-6.73L45.15-6.73Q45.15-8.2 44.64-9.5 44.12-10.8 43.21-11.76 42.31-12.72 41.1-13.28 39.9-13.85 38.53-13.85L38.53-13.85Q36.95-13.85 35.58-13.11 34.2-12.37 33.22-11.05L33.22-11.05 33.22-2.36Q34.16-1.03 35.55-0.29 36.95 0.44 38.53 0.44ZM54.96-15.52L54.96 4.96 50.93 4.96 50.93-15.52 54.96-15.52ZM54.96-23.52L54.96-19.15 50.93-19.15 50.93-23.52 54.96-23.52ZM67.41 5.5L67.41 5.5Q65.35 5.5 63.51 4.62 61.66 3.73 60.29 2.21 58.91 0.69 58.1-1.35 57.29-3.39 57.29-5.7L57.29-5.7Q57.29-8 58.1-10.04 58.91-12.08 60.29-13.58 61.66-15.07 63.51-15.96 65.35-16.84 67.41-16.84L67.41-16.84Q69.82-16.84 71.93-15.69 74.04-14.53 75.51-12.37L75.51-12.37 72.32-10.21Q70.4-12.96 67.41-12.96L67.41-12.96Q66.13-12.96 64.98-12.4 63.82-11.83 62.99-10.85 62.16-9.87 61.66-8.54 61.17-7.22 61.17-5.7L61.17-5.7Q61.17-4.17 61.66-2.85 62.16-1.52 62.99-0.52 63.82 0.49 64.98 1.06 66.13 1.62 67.41 1.62L67.41 1.62Q70.4 1.62 72.32-1.13L72.32-1.13 75.51 1.03Q74.04 3.19 71.93 4.35 69.82 5.5 67.41 5.5ZM87.62-17.23L87.62-17.23Q89.83-17.23 91.74-16.33 93.66-15.42 95.11-13.87 96.56-12.32 97.39-10.26 98.23-8.2 98.23-5.84L98.23-5.84Q98.23-3.49 97.39-1.4 96.56 0.69 95.11 2.23 93.66 3.78 91.74 4.69 89.83 5.6 87.62 5.6L87.62 5.6Q85.41 5.6 83.5 4.69 81.58 3.78 80.13 2.23 78.68 0.69 77.85-1.4 77.01-3.49 77.01-5.84L77.01-5.84Q77.01-8.2 77.85-10.26 78.68-12.32 80.13-13.87 81.58-15.42 83.5-16.33 85.41-17.23 87.62-17.23ZM87.62 1.47L87.62 1.47Q88.95 1.47 90.12 0.91 91.3 0.34 92.19-0.66 93.07-1.67 93.59-3 94.1-4.32 94.1-5.84L94.1-5.84Q94.1-7.32 93.59-8.64 93.07-9.97 92.19-10.97 91.3-11.98 90.12-12.55 88.95-13.11 87.62-13.11L87.62-13.11Q86.29-13.11 85.12-12.55 83.94-11.98 83.05-10.97 82.17-9.97 81.65-8.64 81.14-7.32 81.14-5.84L81.14-5.84Q81.14-4.32 81.65-3 82.17-1.67 83.05-0.66 83.94 0.34 85.12 0.91 86.29 1.47 87.62 1.47ZM120.55-16.6L120.55-16.6Q122.27-16.6 123.74-15.96 125.21-15.32 126.27-14.19 127.32-13.06 127.94-11.54 128.55-10.02 128.55-8.2L128.55-8.2 128.55 4.81 124.38 4.81 124.38-8.2Q124.38-10.02 123.3-11.19 122.22-12.37 120.55-12.37L120.55-12.37Q118.93-12.37 117.85-11.19 116.77-10.02 116.77-8.2L116.77-8.2 116.77 4.81 112.59 4.81 112.59-8.2Q112.59-10.02 111.51-11.19 110.43-12.37 108.81-12.37L108.81-12.37Q107.14-12.37 106.09-11.19 105.03-10.02 105.03-8.2L105.03-8.2 105.03 4.81 100.81 4.81 100.81-12.23 100.07-12.23 100.07-16.45 105.03-16.45 105.03-15.66Q106.75-16.6 108.81-16.6L108.81-16.6Q110.58-16.6 112.08-15.91 113.58-15.22 114.71-13.99L114.71-13.99Q115.79-15.22 117.28-15.91 118.78-16.6 120.55-16.6ZM140.96 4.32L140.96 4.32Q138.11 4.32 135.65 2.8L135.65 2.8 135.65 15.22 131.77 15.22 131.77-13.75 129.47-13.75 129.47-17.63 135.65-17.63 135.65-16.2Q138.11-17.73 140.96-17.73L140.96-17.73Q143.12-17.73 145.03-16.87 146.95-16.01 148.37-14.51 149.79-13.01 150.63-11 151.46-8.99 151.46-6.73L151.46-6.73Q151.46-4.42 150.63-2.43 149.79-0.44 148.37 1.08 146.95 2.6 145.03 3.46 143.12 4.32 140.96 4.32ZM140.96 0.44L140.96 0.44Q142.33 0.44 143.53-0.12 144.74-0.69 145.64-1.64 146.55-2.6 147.07-3.93 147.58-5.25 147.58-6.73L147.58-6.73Q147.58-8.2 147.07-9.5 146.55-10.8 145.64-11.76 144.74-12.72 143.53-13.28 142.33-13.85 140.96-13.85L140.96-13.85Q139.38-13.85 138.01-13.11 136.64-12.37 135.65-11.05L135.65-11.05 135.65-2.36Q136.59-1.03 137.99-0.29 139.38 0.44 140.96 0.44ZM162.35 5.4L162.35 5.4Q162 5.4 161.68 5.4 161.36 5.4 161.07 5.35L161.07 5.35Q158.02 5.06 156.04 3.46 154.05 1.87 153.21-0.93L153.21-0.93 156.9-2.06Q157.88 1.18 161.46 1.52L161.46 1.52Q162.49 1.62 163.47 1.5 164.46 1.37 165.24 1.03 166.03 0.69 166.57 0.22 167.11-0.25 167.26-0.79L167.26-0.79Q167.3-1.03 167.3-1.55 167.3-2.06 166.79-2.65 166.27-3.24 165.02-3.88 163.77-4.52 161.31-5.06L161.31-5.06Q159.1-5.55 157.46-6.63 155.82-7.71 154.98-9.18L154.98-9.18Q153.85-11.34 154.69-13.65L154.69-13.65Q155.47-15.66 157.36-16.84 159.25-18.02 161.76-18.12L161.76-18.12Q163.03-18.17 164.43-17.92 165.83-17.68 167.13-17.04 168.43-16.4 169.54-15.37 170.64-14.34 171.33-12.86L171.33-12.86 167.84-11.19Q167.4-12.03 166.74-12.64 166.08-13.26 165.27-13.63 164.46-13.99 163.6-14.17 162.74-14.34 161.95-14.29L161.95-14.29Q160.87-14.24 159.79-13.77 158.71-13.31 158.32-12.32L158.32-12.32Q158.07-11.69 158.37-11L158.37-11Q158.76-10.31 159.77-9.72 160.77-9.13 162.1-8.84L162.1-8.84Q166.42-7.91 168.63-6.19L168.63-6.19Q170.2-5.01 170.82-3.41 171.43-1.82 171.04 0L171.04 0Q170.74 1.37 169.88 2.41 169.02 3.44 167.82 4.1 166.62 4.76 165.19 5.08 163.77 5.4 162.35 5.4Z"
                  transform="translate(-2.1600000858306885, 29.66499900817871)"
                ></path>
              </g>
            </g>
          </g>
        </g>
      </g>
    </svg>
